<svg width="28" height="30" viewBox="0 0 28 30" fill="none" xmlns="http://www.w3.org/2000/svg">
<circle cx="9.82227" cy="6" r="5" stroke="#3943FF" stroke-width="2"/>
<path d="M16.1862 14.636C17.3984 15.8482 18.229 17.3705 18.601 19.0164C18.8445 20.0938 17.9268 21 16.8223 21H9.82227L2.82227 21C1.7177 21 0.80008 20.0938 1.04355 19.0164C1.4155 17.3705 2.24617 15.8482 3.45831 14.636C5.14613 12.9482 7.43532 12 9.82227 12C12.2092 12 14.4984 12.9482 16.1862 14.636Z" stroke="#3943FF" stroke-width="2"/>
<path d="M16.5801 11.7574C17.7053 10.6321 19.2314 10 20.8227 10C22.414 10 23.9401 10.6321 25.0654 11.7574C25.7135 12.4055 26.1981 13.1867 26.4924 14.0368C26.8539 15.0805 25.9273 16 24.8227 16H20.8227H17.3223" stroke="#3943FF" stroke-width="2"/>
<path d="M16.5796 11.7573C15.6815 12.6554 15.4162 12.8533 15.3457 13.7057" stroke="#3943FF" stroke-width="2"/>
<circle cx="20.8223" cy="6" r="3" stroke="#3943FF" stroke-width="2"/>
</svg>
