<svg width="23" height="18" viewBox="0 0 23 18" fill="none" xmlns="http://www.w3.org/2000/svg">
<path d="M5.76622 15.2031C5.15582 16.901 2.45991 17.0896 1.18825 16.9717C2.10391 16.4057 2.58713 14.142 2.71428 13.0808C0.272723 11.383 1.14045 8.48257 1.18831 8.12885C2.71428 1.40829 17.4219 1.05457 17.9742 8.48256C18.5265 15.9106 10.0899 16.3822 5.76622 15.2031Z" stroke="#3943FF" stroke-width="2" stroke-linejoin="round"/>
<path d="M23 2.5C23 3.88071 21.8807 5 20.5 5C19.1193 5 18 3.88071 18 2.5C18 1.11929 19.1193 0 20.5 0C21.8807 0 23 1.11929 23 2.5Z" fill="#FF0000"/>
</svg>
