<svg width="27" height="21" viewBox="0 0 27 21" fill="none" xmlns="http://www.w3.org/2000/svg">
<path d="M5.76622 18.2031C5.15582 19.901 2.45991 20.0896 1.18825 19.9717C2.10391 19.4057 2.58713 17.142 2.71428 16.0808C0.272723 14.383 1.14045 11.4826 1.18831 11.1289C2.71428 4.40829 17.4219 4.05457 17.9742 11.4826C18.5265 18.9106 10.0899 19.3822 5.76622 18.2031Z" stroke="#3943FF" stroke-width="2" stroke-linejoin="round"/>
<path d="M27 4.5C27 6.98528 24.9853 9 22.5 9C20.0147 9 18 6.98528 18 4.5C18 2.01472 20.0147 0 22.5 0C24.9853 0 27 2.01472 27 4.5Z" fill="#FF0000" fill-opacity="0.5"/>
<path d="M25 4.5C25 5.88071 23.8807 7 22.5 7C21.1193 7 20 5.88071 20 4.5C20 3.11929 21.1193 2 22.5 2C23.8807 2 25 3.11929 25 4.5Z" fill="#FF0000"/>
</svg>
