<svg width="161" height="179" viewBox="0 0 161 179" fill="none" xmlns="http://www.w3.org/2000/svg">
<path d="M18.7772 83.2917L83.0444 18.6986C88.0433 13.6744 94.2484 10.0178 101.065 8.07899C110.529 5.3874 120.643 6.15489 129.592 10.2439L129.978 10.4203C138.039 14.103 144.687 20.3005 148.926 28.0825C154.566 38.4357 155.471 50.7168 151.41 61.7849L149.912 65.868C147.384 72.7583 143.386 79.0156 138.196 84.2054L84.2312 138.17L56.417 164.048C50.9476 169.137 43.7542 171.966 36.2836 171.966L35.9373 171.966C31.7105 171.966 27.5385 171.01 23.733 169.171C18.5198 166.651 14.2144 162.58 11.4076 157.515L10.2514 155.429C6.947 149.467 5.77711 142.555 6.93533 135.837C8.01333 129.585 11.0505 123.837 15.6083 119.423L99.4345 38.2487C101.813 35.9452 104.822 34.3994 108.08 33.8071C112.929 32.9253 117.921 34.227 121.722 37.3646L124.355 39.5377C128.063 42.5987 130.211 47.1561 130.211 51.9647C130.211 56.3655 128.411 60.5749 125.229 63.6151L61.6025 124.408" stroke="#3943FF" stroke-width="13" stroke-linecap="round"/>
</svg>
