<svg width="22" height="22" viewBox="0 0 22 22" fill="none" xmlns="http://www.w3.org/2000/svg">
<path d="M7.60096 4.96889H3C1.89543 4.96889 1 5.86432 1 6.96889V19C1 20.1046 1.89543 21 3 21H15.9739C17.0785 21 17.9739 20.1046 17.9739 19V14.399M19.8599 6.85491L11.3729 15.342L8.47687 15.8246C7.12323 16.0503 5.94968 14.8767 6.17528 13.5231L6.65796 10.6269L15.1449 2.13987M11.3729 15.342L6.65796 10.6269M19.8599 6.85491C19.8599 6.85491 22.4252 4.70566 19.8599 2.14028C17.2946 -0.425108 15.1449 2.13987 15.1449 2.13987M19.8599 6.85491L15.1449 2.13987" stroke="#3943FF" stroke-width="2" stroke-linecap="round" stroke-linejoin="round"/>
</svg>
