<svg width="28" height="22" viewBox="0 0 28 22" fill="none" xmlns="http://www.w3.org/2000/svg">
<circle cx="9.82227" cy="6" r="5" stroke="#3943FF" stroke-width="2"/>
<path d="M15.5936 14.0575C15.4763 14.2661 15.3712 14.4819 15.2793 14.7039" stroke="#3943FF" stroke-width="2"/>
<path d="M15.5938 14.0575C15.8612 13.5822 16.1928 13.1446 16.5801 12.7574C17.1372 12.2002 17.7987 11.7583 18.5266 11.4567C19.2546 11.1552 20.0348 11 20.8227 11C21.6106 11 22.3909 11.1552 23.1188 11.4567C23.8468 11.7582 24.5082 12.2002 25.0653 12.7574C25.6225 13.3145 26.0645 13.9759 26.366 14.7039C26.4115 14.8137 26.4536 14.9248 26.4924 15.0368C26.8539 16.0806 25.9273 17 24.8227 17H20.8227L17.8227 17" stroke="#3943FF" stroke-width="2"/>
<path d="M16.8223 21C17.9268 21 18.8444 20.0938 18.601 19.0164C18.4884 18.5184 18.3335 18.0298 18.1372 17.5558C17.6849 16.4639 17.022 15.4718 16.1862 14.636C15.3505 13.8003 14.3583 13.1374 13.2664 12.6851C12.1745 12.2328 11.0042 12 9.82227 12C8.64037 12 7.47004 12.2328 6.37811 12.6851C5.28618 13.1374 4.29403 13.8003 3.4583 14.636C2.62258 15.4718 1.95964 16.4639 1.50735 17.5558C1.31105 18.0298 1.1561 18.5184 1.04358 19.0164C0.800132 20.0938 1.7177 21 2.82227 21L9.82227 21H16.8223Z" stroke="#3943FF" stroke-width="2"/>
<circle cx="20.8223" cy="7" r="3" stroke="#3943FF" stroke-width="2"/>
</svg>
