<svg width="19" height="19" viewBox="0 0 19 19" fill="none" xmlns="http://www.w3.org/2000/svg">
<path d="M8.79289 1.2928L1.29289 8.7928C1.10536 8.98034 1 9.23469 1 9.49991V16.5857C1 17.138 1.44772 17.5857 2 17.5857H6.88095C7.43324 17.5857 7.88095 17.138 7.88095 16.5857V12.5143C7.88095 11.962 8.32867 11.5143 8.88095 11.5143H10.9286C11.4809 11.5143 11.9286 11.962 11.9286 12.5143V16.5857C11.9286 17.138 12.3763 17.5857 12.9286 17.5857H17C17.5523 17.5857 18 17.138 18 16.5857V9.49991C18 9.23469 17.8946 8.98034 17.7071 8.7928L10.2071 1.2928C9.81658 0.902276 9.18342 0.902276 8.79289 1.2928Z" stroke="#3943FF" stroke-width="2"/>
</svg>
