<svg width="23" height="20" viewBox="0 0 23 20" fill="none" xmlns="http://www.w3.org/2000/svg">
<path d="M6.75263 15.9024C5.93364 15.9024 5.0528 15.9024 4.11133 15.9024C-1.52359 15.9024 1.76345 12.4268 4.11133 10.689C4.11133 8.0823 4.11133 2 10.2744 2C15.2049 2 16.1441 7.79267 15.9974 10.689C21.7204 15.9024 18.1986 15.9024 14.2365 15.9024C13.9649 15.9024 13.5231 15.9024 12.9158 15.9024M6.75263 15.9024C9.53945 15.9024 11.61 15.9024 12.9158 15.9024M6.75263 15.9024C6.75263 20.2469 12.9158 19.8125 12.9158 15.9024" stroke="#3943FF" stroke-width="2"/>
<path d="M23 2.5C23 3.88071 21.8807 5 20.5 5C19.1193 5 18 3.88071 18 2.5C18 1.11929 19.1193 0 20.5 0C21.8807 0 23 1.11929 23 2.5Z" fill="#FF0000"/>
</svg>
