<svg width="27" height="22" viewBox="0 0 27 22" fill="none" xmlns="http://www.w3.org/2000/svg">
<path d="M27 4.5C27 6.98528 24.9853 9 22.5 9C20.0147 9 18 6.98528 18 4.5C18 2.01472 20.0147 0 22.5 0C24.9853 0 27 2.01472 27 4.5Z" fill="#FF0000" fill-opacity="0.5"/>
<path d="M25 4.5C25 5.88071 23.8807 7 22.5 7C21.1193 7 20 5.88071 20 4.5C20 3.11929 21.1193 2 22.5 2C23.8807 2 25 3.11929 25 4.5Z" fill="#FF0000"/>
<path d="M6.75263 17.9024C5.93364 17.9024 5.0528 17.9024 4.11133 17.9024C-1.52359 17.9024 1.76345 14.4268 4.11133 12.689C4.11133 10.0823 4.11133 4 10.2744 4C15.2049 4 16.1441 9.79267 15.9974 12.689C21.7204 17.9024 18.1986 17.9024 14.2365 17.9024C13.9649 17.9024 13.5231 17.9024 12.9158 17.9024M6.75263 17.9024C9.53945 17.9024 11.61 17.9024 12.9158 17.9024M6.75263 17.9024C6.75263 22.2469 12.9158 21.8125 12.9158 17.9024" stroke="#3943FF" stroke-width="2"/>
</svg>
