<svg width="24" height="34" viewBox="0 0 24 34" fill="none" xmlns="http://www.w3.org/2000/svg">
<path d="M2.5 7.79148C2.5 8.89604 3.39543 9.79148 4.5 9.79148C5.60457 9.79148 6.5 8.89604 6.5 7.79148H4.5H2.5ZM15.8984 2.62832L15.3951 4.56396L15.8984 2.62832ZM8.14539 2.63864L7.68534 0.692268L8.14539 2.63864ZM9.6251 2.28889L9.16505 0.342517L9.6251 2.28889ZM14.8151 2.34666L14.3118 4.28231L14.8151 2.34666ZM19.5 14.6738H21.5V7.28611H19.5H17.5V14.6738H19.5ZM9.6251 2.28889L9.16505 0.342517L7.68534 0.692268L8.14539 2.63864L8.60544 4.58501L10.0852 4.23526L9.6251 2.28889ZM15.8984 2.62832L16.4016 0.69267L15.3184 0.411019L14.8151 2.34666L14.3118 4.28231L15.3951 4.56396L15.8984 2.62832ZM4.5 7.24611H2.5V7.79148H4.5H6.5V7.24611H4.5ZM17.5051 3.38459L18.6761 1.76323C17.9909 1.26838 17.2196 0.905349 16.4016 0.69267L15.8984 2.62832L15.3951 4.56396C15.7328 4.65177 16.0513 4.80165 16.3341 5.00595L17.5051 3.38459ZM8.14539 2.63864L7.68534 0.692268C6.82317 0.896053 6.00968 1.26795 5.29148 1.78665L6.46247 3.40801L7.63345 5.02937C7.92506 4.81875 8.25537 4.66775 8.60544 4.58501L8.14539 2.63864ZM9.6251 2.28889L10.0852 4.23526C11.4768 3.90631 12.9278 3.92247 14.3118 4.28231L14.8151 2.34666L15.3184 0.411019C13.3035 -0.112851 11.1911 -0.136367 9.16505 0.342517L9.6251 2.28889ZM6.46247 3.40801L5.29148 1.78665C3.53843 3.05274 2.5 5.08366 2.5 7.24611H4.5H6.5C6.5 6.36807 6.92164 5.54345 7.63345 5.02937L6.46247 3.40801ZM19.5 7.28611H21.5C21.5 5.09854 20.4495 3.04403 18.6761 1.76323L17.5051 3.38459L16.3341 5.00595C17.0663 5.53474 17.5 6.38295 17.5 7.28611H19.5Z" fill="#8288FF"/>
<rect x="2" y="14.6738" width="20" height="17" rx="2" fill="#3943FF" stroke="#3943FF" stroke-width="4"/>
<circle cx="12" cy="21.6738" r="3" fill="white"/>
<rect x="10.5" y="21.6738" width="3" height="6" fill="white"/>
</svg>
