<svg width="42" height="38" viewBox="0 0 42 38" fill="none" xmlns="http://www.w3.org/2000/svg">
<circle cx="25.0003" cy="10.3333" r="8.33333" stroke="#FF0000" stroke-width="4"/>
<path d="M38 35.3333C39.1046 35.3333 40.0137 34.4339 39.8669 33.3392C39.6946 32.0548 39.3562 30.7954 38.8582 29.593C38.1044 27.7731 36.9995 26.1195 35.6066 24.7266C34.2137 23.3338 32.5601 22.2289 30.7402 21.4751C28.9204 20.7212 26.9698 20.3333 25 20.3333C23.0302 20.3333 21.0796 20.7212 19.2597 21.4751C17.4399 22.2289 15.7863 23.3338 14.3934 24.7266C13.0005 26.1195 11.8956 27.7731 11.1418 29.593C10.6438 30.7954 10.3054 32.0548 10.1331 33.3392C9.9863 34.4339 10.8954 35.3333 12 35.3333L25 35.3333H38Z" stroke="#FF0000" stroke-width="4"/>
<line x1="11.5" y1="12.5" x2="1.5" y2="12.5" stroke="#FF0000" stroke-width="3" stroke-linecap="round"/>
</svg>
