<svg width="55" height="37" viewBox="0 0 55 37" fill="none" xmlns="http://www.w3.org/2000/svg">
<ellipse cx="24.978" cy="10.0833" rx="7.76515" ry="8.08333" stroke="#FF0000" stroke-width="4"/>
<path d="M36.9545 34.3333C38.0591 34.3333 38.9682 33.434 38.8226 32.339C38.6598 31.114 38.3472 29.9128 37.8906 28.7652C37.1882 26.9999 36.1586 25.3959 34.8607 24.0448C33.5628 22.6938 32.0219 21.622 30.3261 20.8908C28.6303 20.1596 26.8128 19.7833 24.9773 19.7833C23.1417 19.7833 21.3242 20.1596 19.6284 20.8908C17.9326 21.622 16.3918 22.6938 15.0938 24.0448C13.7959 25.3959 12.7664 26.9999 12.064 28.7652C11.6073 29.9128 11.2947 31.114 11.1319 32.339C10.9864 33.434 11.8954 34.3333 13 34.3333L24.9773 34.3333H36.9545Z" stroke="#FF0000" stroke-width="4"/>
<ellipse cx="43.9179" cy="10.1194" rx="4.91793" ry="5.11944" stroke="#FF0000" stroke-width="4"/>
<path d="M35 23.3274C35.1125 22.7679 35.275 22.2193 35.4861 21.6887C35.931 20.5706 36.583 19.5548 37.405 18.6991C38.2271 17.8434 39.2029 17.1646 40.2769 16.7015C41.3509 16.2384 42.502 16.0001 43.6645 16.0001C44.827 16.0001 45.9782 16.2384 47.0522 16.7015C48.1262 17.1646 49.102 17.8434 49.924 18.6991C50.7461 19.5548 51.3981 20.5706 51.843 21.6887C52.0418 22.1883 52.1975 22.704 52.3089 23.2296C52.5379 24.3101 51.6214 25.2151 50.5168 25.2151H43.6645L37.0164 25.2151" stroke="#FF0000" stroke-width="4"/>
<line x1="11.5" y1="14.5" x2="1.5" y2="14.5" stroke="#FF0000" stroke-width="3" stroke-linecap="round"/>
</svg>
