<svg width="150" height="150" viewBox="0 0 150 150" fill="none" xmlns="http://www.w3.org/2000/svg">
<circle cx="75" cy="75" r="75" fill="#D9D9D9"/>
<path d="M51.2 83.16C49.3333 83.16 47.7533 82.92 46.46 82.44C45.18 81.96 44.2067 81.26 43.54 80.34C42.8867 79.4067 42.56 78.28 42.56 76.96C42.56 75.6267 42.8867 74.5 43.54 73.58C44.2067 72.6467 45.1867 71.94 46.48 71.46C47.7733 70.98 49.3533 70.74 51.22 70.74C51.2467 70.74 51.3333 70.74 51.48 70.74C51.64 70.74 51.8 70.74 51.96 70.74C52.12 70.74 52.2067 70.74 52.22 70.74C54.0733 70.74 55.6267 70.9867 56.88 71.48C58.1467 71.96 59.1067 72.6667 59.76 73.6C60.4133 74.52 60.74 75.64 60.74 76.96C60.74 78.2667 60.42 79.3867 59.78 80.32C59.1533 81.24 58.22 81.9467 56.98 82.44C55.74 82.92 54.2133 83.16 52.4 83.16C52.3733 83.16 52.2667 83.16 52.08 83.16C51.8933 83.16 51.7133 83.16 51.54 83.16C51.3667 83.16 51.2533 83.16 51.2 83.16ZM51.56 80.12C51.6 80.12 51.66 80.12 51.74 80.12C51.8333 80.12 51.9 80.12 51.94 80.12C53.0867 80.12 54.0267 80.0067 54.76 79.78C55.4933 79.5533 56.0333 79.2067 56.38 78.74C56.7267 78.2733 56.9 77.6733 56.9 76.94C56.9 76.1933 56.72 75.5933 56.36 75.14C56 74.6867 55.46 74.3533 54.74 74.14C54.02 73.9133 53.1 73.8 51.98 73.8C51.94 73.8 51.8733 73.8 51.78 73.8C51.7 73.8 51.6267 73.8 51.56 73.8C50.36 73.8 49.38 73.9067 48.62 74.12C47.86 74.3333 47.3 74.6733 46.94 75.14C46.58 75.5933 46.4 76.2 46.4 76.96C46.4 77.7067 46.5933 78.3133 46.98 78.78C47.38 79.2467 47.96 79.5867 48.72 79.8C49.4933 80.0133 50.44 80.12 51.56 80.12ZM49.84 84.66V69.34H53.46V84.66H49.84ZM69.6769 84.28C68.5569 84.28 67.5235 84.1 66.5769 83.74C65.6302 83.38 64.8035 82.8733 64.0969 82.22C63.4035 81.5533 62.8635 80.78 62.4769 79.9C62.0902 79.02 61.8969 78.0533 61.8969 77C61.8969 75.9467 62.0902 74.98 62.4769 74.1C62.8635 73.22 63.4035 72.4533 64.0969 71.8C64.8035 71.1333 65.6302 70.62 66.5769 70.26C67.5235 69.9 68.5569 69.72 69.6769 69.72C70.8102 69.72 71.8435 69.9 72.7769 70.26C73.7235 70.62 74.5435 71.1333 75.2369 71.8C75.9302 72.4533 76.4702 73.22 76.8569 74.1C77.2569 74.98 77.4569 75.9467 77.4569 77C77.4569 78.0533 77.2569 79.0267 76.8569 79.92C76.4702 80.8 75.9302 81.5667 75.2369 82.22C74.5435 82.8733 73.7235 83.38 72.7769 83.74C71.8435 84.1 70.8102 84.28 69.6769 84.28ZM69.6769 81C70.2102 81 70.7035 80.9067 71.1569 80.72C71.6235 80.5333 72.0235 80.2667 72.3569 79.92C72.7035 79.56 72.9702 79.1333 73.1569 78.64C73.3569 78.1467 73.4569 77.6 73.4569 77C73.4569 76.3867 73.3569 75.84 73.1569 75.36C72.9702 74.8667 72.7035 74.4467 72.3569 74.1C72.0235 73.74 71.6235 73.4667 71.1569 73.28C70.7035 73.0933 70.2102 73 69.6769 73C69.1435 73 68.6435 73.0933 68.1769 73.28C67.7235 73.4667 67.3235 73.74 66.9769 74.1C66.6435 74.4467 66.3769 74.8667 66.1769 75.36C65.9902 75.84 65.8969 76.3867 65.8969 77C65.8969 77.6 65.9902 78.1467 66.1769 78.64C66.3769 79.1333 66.6435 79.56 66.9769 79.92C67.3235 80.2667 67.7235 80.5333 68.1769 80.72C68.6435 80.9067 69.1435 81 69.6769 81ZM82.4789 84V72.26L83.3589 73.14H78.1789V70H90.6589V73.14H85.4989L86.3789 72.26V84H82.4789ZM99.1691 84.28C98.0491 84.28 97.0157 84.1 96.0691 83.74C95.1224 83.38 94.2957 82.8733 93.5891 82.22C92.8957 81.5533 92.3557 80.78 91.9691 79.9C91.5824 79.02 91.3891 78.0533 91.3891 77C91.3891 75.9467 91.5824 74.98 91.9691 74.1C92.3557 73.22 92.8957 72.4533 93.5891 71.8C94.2957 71.1333 95.1224 70.62 96.0691 70.26C97.0157 69.9 98.0491 69.72 99.1691 69.72C100.302 69.72 101.336 69.9 102.269 70.26C103.216 70.62 104.036 71.1333 104.729 71.8C105.422 72.4533 105.962 73.22 106.349 74.1C106.749 74.98 106.949 75.9467 106.949 77C106.949 78.0533 106.749 79.0267 106.349 79.92C105.962 80.8 105.422 81.5667 104.729 82.22C104.036 82.8733 103.216 83.38 102.269 83.74C101.336 84.1 100.302 84.28 99.1691 84.28ZM99.1691 81C99.7024 81 100.196 80.9067 100.649 80.72C101.116 80.5333 101.516 80.2667 101.849 79.92C102.196 79.56 102.462 79.1333 102.649 78.64C102.849 78.1467 102.949 77.6 102.949 77C102.949 76.3867 102.849 75.84 102.649 75.36C102.462 74.8667 102.196 74.4467 101.849 74.1C101.516 73.74 101.116 73.4667 100.649 73.28C100.196 73.0933 99.7024 73 99.1691 73C98.6357 73 98.1357 73.0933 97.6691 73.28C97.2157 73.4667 96.8157 73.74 96.4691 74.1C96.1357 74.4467 95.8691 74.8667 95.6691 75.36C95.4824 75.84 95.3891 76.3867 95.3891 77C95.3891 77.6 95.4824 78.1467 95.6691 78.64C95.8691 79.1333 96.1357 79.56 96.4691 79.92C96.8157 80.2667 97.2157 80.5333 97.6691 80.72C98.1357 80.9067 98.6357 81 99.1691 81Z" fill="white"/>
</svg>
