<svg width="104" height="97" viewBox="0 0 104 97" fill="none" xmlns="http://www.w3.org/2000/svg">
<rect width="103.417" height="96.2904" rx="10" fill="#D9D9D9"/>
<path d="M37.52 51.496C36.4 51.496 35.452 51.352 34.676 51.064C33.908 50.776 33.324 50.356 32.924 49.804C32.532 49.244 32.336 48.568 32.336 47.776C32.336 46.976 32.532 46.3 32.924 45.748C33.324 45.188 33.912 44.764 34.688 44.476C35.464 44.188 36.412 44.044 37.532 44.044C37.548 44.044 37.6 44.044 37.688 44.044C37.784 44.044 37.88 44.044 37.976 44.044C38.072 44.044 38.124 44.044 38.132 44.044C39.244 44.044 40.176 44.192 40.928 44.488C41.688 44.776 42.264 45.2 42.656 45.76C43.048 46.312 43.244 46.984 43.244 47.776C43.244 48.56 43.052 49.232 42.668 49.792C42.292 50.344 41.732 50.768 40.988 51.064C40.244 51.352 39.328 51.496 38.24 51.496C38.224 51.496 38.16 51.496 38.048 51.496C37.936 51.496 37.828 51.496 37.724 51.496C37.62 51.496 37.552 51.496 37.52 51.496ZM37.736 49.672C37.76 49.672 37.796 49.672 37.844 49.672C37.9 49.672 37.94 49.672 37.964 49.672C38.652 49.672 39.216 49.604 39.656 49.468C40.096 49.332 40.42 49.124 40.628 48.844C40.836 48.564 40.94 48.204 40.94 47.764C40.94 47.316 40.832 46.956 40.616 46.684C40.4 46.412 40.076 46.212 39.644 46.084C39.212 45.948 38.66 45.88 37.988 45.88C37.964 45.88 37.924 45.88 37.868 45.88C37.82 45.88 37.776 45.88 37.736 45.88C37.016 45.88 36.428 45.944 35.972 46.072C35.516 46.2 35.18 46.404 34.964 46.684C34.748 46.956 34.64 47.32 34.64 47.776C34.64 48.224 34.756 48.588 34.988 48.868C35.228 49.148 35.576 49.352 36.032 49.48C36.496 49.608 37.064 49.672 37.736 49.672ZM36.704 52.396V43.204H38.876V52.396H36.704ZM48.6061 52.168C47.9341 52.168 47.3141 52.06 46.7461 51.844C46.1781 51.628 45.6821 51.324 45.2581 50.932C44.8421 50.532 44.5181 50.068 44.2861 49.54C44.0541 49.012 43.9381 48.432 43.9381 47.8C43.9381 47.168 44.0541 46.588 44.2861 46.06C44.5181 45.532 44.8421 45.072 45.2581 44.68C45.6821 44.28 46.1781 43.972 46.7461 43.756C47.3141 43.54 47.9341 43.432 48.6061 43.432C49.2861 43.432 49.9061 43.54 50.4661 43.756C51.0341 43.972 51.5261 44.28 51.9421 44.68C52.3581 45.072 52.6821 45.532 52.9141 46.06C53.1541 46.588 53.2741 47.168 53.2741 47.8C53.2741 48.432 53.1541 49.016 52.9141 49.552C52.6821 50.08 52.3581 50.54 51.9421 50.932C51.5261 51.324 51.0341 51.628 50.4661 51.844C49.9061 52.06 49.2861 52.168 48.6061 52.168ZM48.6061 50.2C48.9261 50.2 49.2221 50.144 49.4941 50.032C49.7741 49.92 50.0141 49.76 50.2141 49.552C50.4221 49.336 50.5821 49.08 50.6941 48.784C50.8141 48.488 50.8741 48.16 50.8741 47.8C50.8741 47.432 50.8141 47.104 50.6941 46.816C50.5821 46.52 50.4221 46.268 50.2141 46.06C50.0141 45.844 49.7741 45.68 49.4941 45.568C49.2221 45.456 48.9261 45.4 48.6061 45.4C48.2861 45.4 47.9861 45.456 47.7061 45.568C47.4341 45.68 47.1941 45.844 46.9861 46.06C46.7861 46.268 46.6261 46.52 46.5061 46.816C46.3941 47.104 46.3381 47.432 46.3381 47.8C46.3381 48.16 46.3941 48.488 46.5061 48.784C46.6261 49.08 46.7861 49.336 46.9861 49.552C47.1941 49.76 47.4341 49.92 47.7061 50.032C47.9861 50.144 48.2861 50.2 48.6061 50.2ZM56.2873 52V44.956L56.8153 45.484H53.7073V43.6H61.1953V45.484H58.0993L58.6273 44.956V52H56.2873ZM66.3014 52.168C65.6294 52.168 65.0094 52.06 64.4414 51.844C63.8734 51.628 63.3774 51.324 62.9534 50.932C62.5374 50.532 62.2134 50.068 61.9814 49.54C61.7494 49.012 61.6334 48.432 61.6334 47.8C61.6334 47.168 61.7494 46.588 61.9814 46.06C62.2134 45.532 62.5374 45.072 62.9534 44.68C63.3774 44.28 63.8734 43.972 64.4414 43.756C65.0094 43.54 65.6294 43.432 66.3014 43.432C66.9814 43.432 67.6014 43.54 68.1614 43.756C68.7294 43.972 69.2214 44.28 69.6374 44.68C70.0534 45.072 70.3774 45.532 70.6094 46.06C70.8494 46.588 70.9694 47.168 70.9694 47.8C70.9694 48.432 70.8494 49.016 70.6094 49.552C70.3774 50.08 70.0534 50.54 69.6374 50.932C69.2214 51.324 68.7294 51.628 68.1614 51.844C67.6014 52.06 66.9814 52.168 66.3014 52.168ZM66.3014 50.2C66.6214 50.2 66.9174 50.144 67.1894 50.032C67.4694 49.92 67.7094 49.76 67.9094 49.552C68.1174 49.336 68.2774 49.08 68.3894 48.784C68.5094 48.488 68.5694 48.16 68.5694 47.8C68.5694 47.432 68.5094 47.104 68.3894 46.816C68.2774 46.52 68.1174 46.268 67.9094 46.06C67.7094 45.844 67.4694 45.68 67.1894 45.568C66.9174 45.456 66.6214 45.4 66.3014 45.4C65.9814 45.4 65.6814 45.456 65.4014 45.568C65.1294 45.68 64.8894 45.844 64.6814 46.06C64.4814 46.268 64.3214 46.52 64.2014 46.816C64.0894 47.104 64.0334 47.432 64.0334 47.8C64.0334 48.16 64.0894 48.488 64.2014 48.784C64.3214 49.08 64.4814 49.336 64.6814 49.552C64.8894 49.76 65.1294 49.92 65.4014 50.032C65.6814 50.144 65.9814 50.2 66.3014 50.2Z" fill="white"/>
</svg>
